<svg width="328" height="44" viewBox="0 0 328 44" fill="none" xmlns="http://www.w3.org/2000/svg">
<g filter="url(#filter0_i_2_3)">
<path d="M327.303 37.4731H320.969L304.219 20.5827L293.803 28.0895V37.4731H289.112V4.63062H293.803V22.9286L319.561 4.63062H326.411L307.785 18.0022L327.303 37.4731Z" fill="#94A3B8"/>
</g>
<g filter="url(#filter1_i_2_3)">
<path d="M283.457 37.4731H262.297C260.014 37.4731 257.95 37.0508 256.104 36.2063C254.259 35.3618 252.663 34.1888 251.319 32.6875C250.005 31.1861 248.988 29.4501 248.269 27.4796C247.549 25.4778 247.19 23.3352 247.19 21.0519C247.19 18.7998 247.549 16.6885 248.269 14.7179C248.988 12.7161 250.005 10.9645 251.319 9.46315C252.663 7.9305 254.259 6.74192 256.104 5.8974C257.95 5.05288 260.014 4.63062 262.297 4.63062H283.457V9.3224H262.297C260.139 9.3224 258.278 9.85413 256.714 10.9176C255.181 11.9498 253.993 13.3573 253.148 15.1402C252.304 16.9231 251.882 18.8936 251.882 21.0519C251.882 23.2101 252.304 25.1806 253.148 26.9635C253.993 28.7151 255.181 30.1226 256.714 31.1861C258.278 32.2496 260.139 32.7813 262.297 32.7813H283.457V37.4731Z" fill="#94A3B8"/>
</g>
<g filter="url(#filter2_d_2_3)">
<path fill-rule="evenodd" clip-rule="evenodd" d="M213.585 3C209.364 3 205.943 6.42113 205.943 10.6413V31.1749C205.943 35.3951 209.364 38.8162 213.585 38.8162H234.118C238.338 38.8162 241.76 35.3951 241.76 31.1749V10.6413C241.76 6.42113 238.338 3 234.118 3H213.585ZM217.166 6.58163C212.946 6.58163 209.525 10.0028 209.525 14.2229V27.5933C209.525 31.8135 212.946 35.2346 217.166 35.2346H230.537C234.757 35.2346 238.178 31.8135 238.178 27.5933V14.2229C238.178 10.0028 234.757 6.58163 230.537 6.58163H217.166Z" fill="#F55252"/>
<path fill-rule="evenodd" clip-rule="evenodd" d="M236 22H213V21H236V22Z" fill="#94A3B8"/>
<path fill-rule="evenodd" clip-rule="evenodd" d="M224 32V11H225V32H224Z" fill="#94A3B8"/>
<path fill-rule="evenodd" clip-rule="evenodd" d="M213 18V25H212V18H213Z" fill="#94A3B8"/>
<path fill-rule="evenodd" clip-rule="evenodd" d="M236 18V25H235V18H236Z" fill="#94A3B8"/>
<path fill-rule="evenodd" clip-rule="evenodd" d="M228 11H221V10H228V11Z" fill="#94A3B8"/>
<path fill-rule="evenodd" clip-rule="evenodd" d="M228 33H221V32H228V33Z" fill="#94A3B8"/>
</g>
<g filter="url(#filter3_i_2_3)">
<path d="M201.982 37.4731H170.594V4.63062H175.286V32.7813H201.982V37.4731Z" fill="#94A3B8"/>
</g>
<g filter="url(#filter4_i_2_3)">
<path d="M165.086 28.0895C165.086 29.8098 164.664 31.3894 163.819 32.8282C162.975 34.2358 161.833 35.3618 160.394 36.2063C158.987 37.0508 157.423 37.4731 155.702 37.4731H133.463V32.7813H155.702C156.985 32.7813 158.079 32.3278 158.987 31.4207C159.925 30.4823 160.394 29.3719 160.394 28.0895C160.394 26.8071 159.925 25.7124 158.987 24.8053C158.079 23.8669 156.985 23.3977 155.702 23.3977H133.463V18.706H151.011C152.293 18.706 153.388 18.2524 154.295 17.3453C155.233 16.407 155.702 15.2966 155.702 14.0142C155.702 12.7318 155.233 11.637 154.295 10.7299C153.388 9.79158 152.293 9.3224 151.011 9.3224H131.117V37.4731H126.426V4.63062H151.011C152.731 4.63062 154.295 5.05288 155.702 5.8974C157.141 6.74192 158.283 7.88359 159.127 9.3224C159.972 10.7299 160.394 12.2939 160.394 14.0142C160.394 14.9838 160.253 15.9222 159.972 16.8293C159.69 17.705 159.299 18.5183 158.799 19.269C160.644 19.8945 162.146 21.0206 163.303 22.6471C164.492 24.2423 165.086 26.0564 165.086 28.0895Z" fill="#94A3B8"/>
</g>
<g filter="url(#filter5_i_2_3)">
<path d="M81.9863 37.4731H77.2945V21.0519C77.2945 18.8936 76.7628 16.9231 75.6993 15.1402C74.6671 13.3573 73.2596 11.9498 71.4767 10.9176C69.6938 9.85413 67.7233 9.3224 65.5651 9.3224H63.0315V37.4731H58.3397V4.63062H65.5651C68.5365 4.63062 71.2578 5.36566 73.7288 6.83575C76.231 8.30585 78.2016 10.2295 79.6404 12.6066C81.0792 10.2295 83.0341 8.30585 85.5051 6.83575C88.0074 5.36566 90.7443 4.63062 93.7158 4.63062H100.941V37.4731H96.2493V9.3224H93.7158C91.5575 9.3224 89.587 9.85413 87.8041 10.9176C86.0525 11.9498 84.645 13.3573 83.5815 15.1402C82.518 16.9231 81.9863 18.8936 81.9863 21.0519V37.4731Z" fill="#94A3B8"/>
</g>
<g filter="url(#filter6_i_2_3)">
<path d="M50.4774 37.4731H45.7856V4.63062H50.4774V37.4731Z" fill="#94A3B8"/>
</g>
<g filter="url(#filter7_i_2_3)">
<path d="M37.9096 37.4731H33.2178V28.0895H6.99075V23.3977H33.2178V9.3224H16.3743C14.2474 9.3224 12.2925 9.85413 10.5096 10.9176C8.72671 11.9498 7.30354 13.3573 6.24007 15.1402C5.20788 16.9231 4.69178 18.8936 4.69178 21.0519V37.4731H0V21.0519C0 18.7998 0.42226 16.6885 1.26678 14.7179C2.1113 12.7161 3.28425 10.9645 4.78562 9.46315C6.28699 7.9305 8.02295 6.74192 9.9935 5.8974C11.9953 5.05288 14.1223 4.63062 16.3743 4.63062H37.9096V37.4731Z" fill="#94A3B8"/>
</g>
<defs>
<filter id="filter0_i_2_3" x="289.112" y="4.63062" width="38.1911" height="36.8425" filterUnits="userSpaceOnUse" color-interpolation-filters="sRGB">
<feFlood flood-opacity="0" result="BackgroundImageFix"/>
<feBlend mode="normal" in="SourceGraphic" in2="BackgroundImageFix" result="shape"/>
<feColorMatrix in="SourceAlpha" type="matrix" values="0 0 0 0 0 0 0 0 0 0 0 0 0 0 0 0 0 0 127 0" result="hardAlpha"/>
<feOffset dy="4"/>
<feGaussianBlur stdDeviation="2"/>
<feComposite in2="hardAlpha" operator="arithmetic" k2="-1" k3="1"/>
<feColorMatrix type="matrix" values="0 0 0 0 0 0 0 0 0 0 0 0 0 0 0 0 0 0 0.25 0"/>
<feBlend mode="normal" in2="shape" result="effect1_innerShadow_2_3"/>
</filter>
<filter id="filter1_i_2_3" x="247.19" y="4.63062" width="36.2675" height="36.8425" filterUnits="userSpaceOnUse" color-interpolation-filters="sRGB">
<feFlood flood-opacity="0" result="BackgroundImageFix"/>
<feBlend mode="normal" in="SourceGraphic" in2="BackgroundImageFix" result="shape"/>
<feColorMatrix in="SourceAlpha" type="matrix" values="0 0 0 0 0 0 0 0 0 0 0 0 0 0 0 0 0 0 127 0" result="hardAlpha"/>
<feOffset dy="4"/>
<feGaussianBlur stdDeviation="2"/>
<feComposite in2="hardAlpha" operator="arithmetic" k2="-1" k3="1"/>
<feColorMatrix type="matrix" values="0 0 0 0 0 0 0 0 0 0 0 0 0 0 0 0 0 0 0.25 0"/>
<feBlend mode="normal" in2="shape" result="effect1_innerShadow_2_3"/>
</filter>
<filter id="filter2_d_2_3" x="201.943" y="0" width="43.8162" height="43.8162" filterUnits="userSpaceOnUse" color-interpolation-filters="sRGB">
<feFlood flood-opacity="0" result="BackgroundImageFix"/>
<feColorMatrix in="SourceAlpha" type="matrix" values="0 0 0 0 0 0 0 0 0 0 0 0 0 0 0 0 0 0 127 0" result="hardAlpha"/>
<feOffset dy="1"/>
<feGaussianBlur stdDeviation="2"/>
<feComposite in2="hardAlpha" operator="out"/>
<feColorMatrix type="matrix" values="0 0 0 0 0 0 0 0 0 0 0 0 0 0 0 0 0 0 0.25 0"/>
<feBlend mode="normal" in2="BackgroundImageFix" result="effect1_dropShadow_2_3"/>
<feBlend mode="normal" in="SourceGraphic" in2="effect1_dropShadow_2_3" result="shape"/>
</filter>
<filter id="filter3_i_2_3" x="170.594" y="4.63062" width="31.388" height="36.8425" filterUnits="userSpaceOnUse" color-interpolation-filters="sRGB">
<feFlood flood-opacity="0" result="BackgroundImageFix"/>
<feBlend mode="normal" in="SourceGraphic" in2="BackgroundImageFix" result="shape"/>
<feColorMatrix in="SourceAlpha" type="matrix" values="0 0 0 0 0 0 0 0 0 0 0 0 0 0 0 0 0 0 127 0" result="hardAlpha"/>
<feOffset dy="4"/>
<feGaussianBlur stdDeviation="2"/>
<feComposite in2="hardAlpha" operator="arithmetic" k2="-1" k3="1"/>
<feColorMatrix type="matrix" values="0 0 0 0 0 0 0 0 0 0 0 0 0 0 0 0 0 0 0.25 0"/>
<feBlend mode="normal" in2="shape" result="effect1_innerShadow_2_3"/>
</filter>
<filter id="filter4_i_2_3" x="126.426" y="4.63062" width="38.6603" height="36.8425" filterUnits="userSpaceOnUse" color-interpolation-filters="sRGB">
<feFlood flood-opacity="0" result="BackgroundImageFix"/>
<feBlend mode="normal" in="SourceGraphic" in2="BackgroundImageFix" result="shape"/>
<feColorMatrix in="SourceAlpha" type="matrix" values="0 0 0 0 0 0 0 0 0 0 0 0 0 0 0 0 0 0 127 0" result="hardAlpha"/>
<feOffset dy="4"/>
<feGaussianBlur stdDeviation="2"/>
<feComposite in2="hardAlpha" operator="arithmetic" k2="-1" k3="1"/>
<feColorMatrix type="matrix" values="0 0 0 0 0 0 0 0 0 0 0 0 0 0 0 0 0 0 0.25 0"/>
<feBlend mode="normal" in2="shape" result="effect1_innerShadow_2_3"/>
</filter>
<filter id="filter5_i_2_3" x="58.3397" y="4.63062" width="42.6014" height="36.8425" filterUnits="userSpaceOnUse" color-interpolation-filters="sRGB">
<feFlood flood-opacity="0" result="BackgroundImageFix"/>
<feBlend mode="normal" in="SourceGraphic" in2="BackgroundImageFix" result="shape"/>
<feColorMatrix in="SourceAlpha" type="matrix" values="0 0 0 0 0 0 0 0 0 0 0 0 0 0 0 0 0 0 127 0" result="hardAlpha"/>
<feOffset dy="4"/>
<feGaussianBlur stdDeviation="2"/>
<feComposite in2="hardAlpha" operator="arithmetic" k2="-1" k3="1"/>
<feColorMatrix type="matrix" values="0 0 0 0 0 0 0 0 0 0 0 0 0 0 0 0 0 0 0.25 0"/>
<feBlend mode="normal" in2="shape" result="effect1_innerShadow_2_3"/>
</filter>
<filter id="filter6_i_2_3" x="45.7856" y="4.63062" width="4.69177" height="36.8425" filterUnits="userSpaceOnUse" color-interpolation-filters="sRGB">
<feFlood flood-opacity="0" result="BackgroundImageFix"/>
<feBlend mode="normal" in="SourceGraphic" in2="BackgroundImageFix" result="shape"/>
<feColorMatrix in="SourceAlpha" type="matrix" values="0 0 0 0 0 0 0 0 0 0 0 0 0 0 0 0 0 0 127 0" result="hardAlpha"/>
<feOffset dy="4"/>
<feGaussianBlur stdDeviation="2"/>
<feComposite in2="hardAlpha" operator="arithmetic" k2="-1" k3="1"/>
<feColorMatrix type="matrix" values="0 0 0 0 0 0 0 0 0 0 0 0 0 0 0 0 0 0 0.25 0"/>
<feBlend mode="normal" in2="shape" result="effect1_innerShadow_2_3"/>
</filter>
<filter id="filter7_i_2_3" x="0" y="4.63062" width="37.9096" height="36.8425" filterUnits="userSpaceOnUse" color-interpolation-filters="sRGB">
<feFlood flood-opacity="0" result="BackgroundImageFix"/>
<feBlend mode="normal" in="SourceGraphic" in2="BackgroundImageFix" result="shape"/>
<feColorMatrix in="SourceAlpha" type="matrix" values="0 0 0 0 0 0 0 0 0 0 0 0 0 0 0 0 0 0 127 0" result="hardAlpha"/>
<feOffset dy="4"/>
<feGaussianBlur stdDeviation="2"/>
<feComposite in2="hardAlpha" operator="arithmetic" k2="-1" k3="1"/>
<feColorMatrix type="matrix" values="0 0 0 0 0 0 0 0 0 0 0 0 0 0 0 0 0 0 0.25 0"/>
<feBlend mode="normal" in2="shape" result="effect1_innerShadow_2_3"/>
</filter>
</defs>
</svg>
