<svg width="86" height="86" viewBox="0 0 86 86" fill="none" xmlns="http://www.w3.org/2000/svg">
<path d="M0 12C0 5.37258 5.37258 0 12 0H74C80.6274 0 86 5.37258 86 12V74C86 80.6274 80.6274 86 74 86H12C5.37258 86 0 80.6274 0 74V12Z" fill="#F1F5F9"/>
<g filter="url(#filter0_d_6_2)">
<path d="M8 20C8 13.3726 13.3726 8 20 8H66C72.6274 8 78 13.3726 78 20V66C78 72.6274 72.6274 78 66 78H20C13.3726 78 8 72.6274 8 66V20Z" fill="#F55252"/>
</g>
<g filter="url(#filter1_i_6_2)">
<line x1="18" y1="41.5" x2="68" y2="41.5" stroke="#F1F5F9"/>
<line x1="43.5" y1="17" x2="43.5" y2="67" stroke="#F1F5F9"/>
<line x1="18.5" y1="49" x2="18.5" y2="34" stroke="#F1F5F9"/>
<line x1="67.5" y1="49" x2="67.5" y2="34" stroke="#F1F5F9"/>
<line x1="36" y1="17.5" x2="51" y2="17.5" stroke="#F1F5F9"/>
<line x1="36" y1="66.5" x2="51" y2="66.5" stroke="#F1F5F9"/>
</g>
<g filter="url(#filter2_d_6_2)">
<line x1="18" y1="41.5" x2="68" y2="41.5" stroke="#F1F5F9"/>
<line x1="43.5" y1="17" x2="43.5" y2="67" stroke="#F1F5F9"/>
<line x1="18.5" y1="49" x2="18.5" y2="34" stroke="#F1F5F9"/>
<line x1="67.5" y1="49" x2="67.5" y2="34" stroke="#F1F5F9"/>
<line x1="36" y1="17.5" x2="51" y2="17.5" stroke="#F1F5F9"/>
<line x1="36" y1="66.5" x2="51" y2="66.5" stroke="#F1F5F9"/>
</g>
<defs>
<filter id="filter0_d_6_2" x="2" y="2" width="82" height="82" filterUnits="userSpaceOnUse" color-interpolation-filters="sRGB">
<feFlood flood-opacity="0" result="BackgroundImageFix"/>
<feColorMatrix in="SourceAlpha" type="matrix" values="0 0 0 0 0 0 0 0 0 0 0 0 0 0 0 0 0 0 127 0" result="hardAlpha"/>
<feMorphology radius="2" operator="dilate" in="SourceAlpha" result="effect1_dropShadow_6_2"/>
<feOffset/>
<feGaussianBlur stdDeviation="2"/>
<feComposite in2="hardAlpha" operator="out"/>
<feColorMatrix type="matrix" values="0 0 0 0 0 0 0 0 0 0 0 0 0 0 0 0 0 0 0.25 0"/>
<feBlend mode="normal" in2="BackgroundImageFix" result="effect1_dropShadow_6_2"/>
<feBlend mode="normal" in="SourceGraphic" in2="effect1_dropShadow_6_2" result="shape"/>
</filter>
<filter id="filter1_i_6_2" x="18" y="17" width="50" height="54" filterUnits="userSpaceOnUse" color-interpolation-filters="sRGB">
<feFlood flood-opacity="0" result="BackgroundImageFix"/>
<feBlend mode="normal" in="SourceGraphic" in2="BackgroundImageFix" result="shape"/>
<feColorMatrix in="SourceAlpha" type="matrix" values="0 0 0 0 0 0 0 0 0 0 0 0 0 0 0 0 0 0 127 0" result="hardAlpha"/>
<feOffset dy="4"/>
<feGaussianBlur stdDeviation="2"/>
<feComposite in2="hardAlpha" operator="arithmetic" k2="-1" k3="1"/>
<feColorMatrix type="matrix" values="0 0 0 0 0 0 0 0 0 0 0 0 0 0 0 0 0 0 0.25 0"/>
<feBlend mode="normal" in2="shape" result="effect1_innerShadow_6_2"/>
</filter>
<filter id="filter2_d_6_2" x="14" y="17" width="58" height="58" filterUnits="userSpaceOnUse" color-interpolation-filters="sRGB">
<feFlood flood-opacity="0" result="BackgroundImageFix"/>
<feColorMatrix in="SourceAlpha" type="matrix" values="0 0 0 0 0 0 0 0 0 0 0 0 0 0 0 0 0 0 127 0" result="hardAlpha"/>
<feOffset dy="4"/>
<feGaussianBlur stdDeviation="2"/>
<feComposite in2="hardAlpha" operator="out"/>
<feColorMatrix type="matrix" values="0 0 0 0 0 0 0 0 0 0 0 0 0 0 0 0 0 0 0.25 0"/>
<feBlend mode="normal" in2="BackgroundImageFix" result="effect1_dropShadow_6_2"/>
<feBlend mode="normal" in="SourceGraphic" in2="effect1_dropShadow_6_2" result="shape"/>
</filter>
</defs>
</svg>
